<svg xmlns="http://www.w3.org/2000/svg" xmlns:xlink="http://www.w3.org/1999/xlink" version="1.1" viewBox="0 0 355 355"><g id="Page-1" fill="none" fill-rule="evenodd" stroke="none" stroke-width="1"><g id="Getting-Started"><rect id="Rectangle-8" width="355" height="355" x="0" y="0" fill="#EF5F8B"/><rect id="Rectangle-76" width="5" height="107" x="47" y="48" fill="#D8D8D8" rx="3"/><rect id="Rectangle-76" width="5" height="56" x="152" y="62" fill="#D8D8D8" rx="3"/><rect id="Rectangle-76" width="5" height="56" x="166" y="22" fill="#D8D8D8" rx="3"/><rect id="Rectangle-76" width="5" height="56" x="166" y="227" fill="#D8D8D8" rx="3"/><rect id="Rectangle-76" width="5" height="81" x="152" y="222" fill="#D8D8D8" rx="3"/><rect id="Rectangle-76" width="5" height="36" x="279" y="105" fill="#D8D8D8" rx="3"/><rect id="Rectangle-76" width="5" height="93" x="273" y="180" fill="#D8D8D8" rx="3"/><rect id="Rectangle-76" width="5" height="36" x="298" y="165" fill="#D8D8D8" rx="3"/><rect id="Rectangle-76" width="5" height="56" x="183" y="43" fill="#D8D8D8" rx="3"/><rect id="Rectangle-76" width="5" height="56" x="198" y="56" fill="#D8D8D8" rx="3"/><rect id="Rectangle-76" width="5" height="56" x="198" y="206" fill="#D8D8D8" rx="3"/><rect id="Rectangle-76" width="5" height="81" x="183" y="245" fill="#D8D8D8" rx="3"/><rect id="Rectangle-76" width="5" height="77" x="63" y="165" fill="#D8D8D8" rx="3"/><rect id="Rectangle-43" width="64" height="10" x="146" y="108" fill="#D8D8D8"/><rect id="Rectangle-52" width="5" height="19" x="152" y="72" fill="#77CABB" rx="12"/><rect id="Rectangle-41" width="150" height="150" x="102" y="86" fill="#3DB39E" rx="12"/><rect id="Rectangle-74" width="17" height="4" x="218" y="218" fill="#D8D8D8" rx="3"/><rect id="Rectangle-70" width="49" height="4" x="203" y="204" fill="#D8D8D8" rx="3"/><rect id="Rectangle-43" width="64" height="10" x="146" y="108" fill="#D8D8D8"/><rect id="Rectangle-43" width="64" height="10" x="98" y="156" fill="#D8D8D8" transform="translate(130.000000, 161.000000) scale(-1, -1) rotate(-90.000000) translate(-130.000000, -161.000000)"/><rect id="Rectangle-43" width="64" height="10" x="193" y="156" fill="#D8D8D8" transform="translate(225.000000, 161.000000) scale(-1, -1) rotate(-90.000000) translate(-225.000000, -161.000000)"/><rect id="Rectangle-43" width="64" height="10" x="145" y="203" fill="#D8D8D8"/><rect id="Rectangle-42" width="85" height="85" x="135" y="118" fill="#324D5B" rx="12"/><circle id="Oval-33" cx="149" cy="131" r="5" fill="#61757F"/><circle id="Oval-33" cx="149" cy="190" r="5" fill="#61757F"/><circle id="Oval-33" cx="206" cy="190" r="5" fill="#61757F"/><circle id="Oval-33" cx="206" cy="131" r="5" fill="#61757F"/><rect id="Rectangle-57" width="64" height="5" x="34" y="136" fill="#D8D8D8"/><rect id="Rectangle-57" width="44" height="5" x="237" y="136" fill="#D8D8D8"/><rect id="Rectangle-57" width="64" height="5" x="237" y="165" fill="#D8D8D8"/><rect id="Rectangle-57" width="30" height="5" x="200" y="257" fill="#D8D8D8"/><rect id="Rectangle-57" width="55" height="5" x="153" y="298" fill="#D8D8D8"/><rect id="Rectangle-57" width="49" height="5" x="226" y="180" fill="#D8D8D8"/><rect id="Rectangle-57" width="55" height="5" x="263" y="150" fill="#D8D8D8"/><rect id="Rectangle-57" width="49" height="5" x="49" y="150" fill="#D8D8D8"/><rect id="Rectangle-57" width="32" height="5" x="66" y="165" fill="#D8D8D8"/><rect id="Rectangle-57" width="55" height="5" x="43" y="180" fill="#D8D8D8"/><rect id="Rectangle-57" width="73" height="5" x="82" y="62" fill="#D8D8D8"/><rect id="Rectangle-57" width="73" height="5" x="113" y="43" fill="#D8D8D8"/><rect id="Rectangle-57" width="73" height="5" x="168" y="22" fill="#D8D8D8"/><rect id="Rectangle-57" width="99" height="5" x="200" y="56" fill="#D8D8D8"/><rect id="Rectangle-57" width="92" height="5" x="93" y="321" fill="#D8D8D8"/><rect id="Rectangle-57" width="49" height="5" x="119" y="278" fill="#D8D8D8"/><rect id="Rectangle-48" width="5" height="22" x="152" y="86" fill="#77CABB"/><path id="Rectangle-48" fill="#77CABB" d="M166,74.5028681 C166,73.1205722 167.109662,72 168.5,72 L168.5,72 C169.880712,72 171,73.1168847 171,74.5028681 L171,108 C171,108 166,108 166,108 C166,108 166,74.5028681 166,74.5028681 Z"/><path id="Rectangle-48" fill="#77CABB" d="M183,74.5028681 C183,73.1205722 184.109662,72 185.5,72 L185.5,72 C186.880712,72 188,73.1168847 188,74.5028681 L188,108 C188,108 183,108 183,108 C183,108 183,74.5028681 183,74.5028681 Z"/><path id="Rectangle-48" fill="#77CABB" d="M183,215.502868 C183,214.120572 184.109662,213 185.5,213 L185.5,213 C186.880712,213 188,214.116885 188,215.502868 L188,249 C188,249 183,249 183,249 C183,249 183,215.502868 183,215.502868 Z" transform="translate(185.500000, 231.000000) rotate(180.000000) translate(-185.500000, -231.000000)"/><path id="Rectangle-48" fill="#77CABB" d="M198,215.502868 C198,214.120572 199.109662,213 200.5,213 L200.5,213 C201.880712,213 203,214.116885 203,215.502868 L203,249 C203,249 198,249 198,249 C198,249 198,215.502868 198,215.502868 Z" transform="translate(200.500000, 231.000000) rotate(180.000000) translate(-200.500000, -231.000000)"/><path id="Rectangle-48" fill="#77CABB" d="M166,215.502868 C166,214.120572 167.109662,213 168.5,213 L168.5,213 C169.880712,213 171,214.116885 171,215.502868 L171,249 C171,249 166,249 166,249 C166,249 166,215.502868 166,215.502868 Z" transform="translate(168.500000, 231.000000) rotate(180.000000) translate(-168.500000, -231.000000)"/><path id="Rectangle-48" fill="#77CABB" d="M152,215.502868 C152,214.120572 153.109662,213 154.5,213 L154.5,213 C155.880712,213 157,214.116885 157,215.502868 L157,249 C157,249 152,249 152,249 C152,249 152,215.502868 152,215.502868 Z" transform="translate(154.500000, 231.000000) rotate(180.000000) translate(-154.500000, -231.000000)"/><path id="Rectangle-48" fill="#77CABB" d="M198,74.5028681 C198,73.1205722 199.109662,72 200.5,72 L200.5,72 C201.880712,72 203,73.1168847 203,74.5028681 L203,108 C203,108 198,108 198,108 C198,108 198,74.5028681 198,74.5028681 Z"/><path id="Rectangle-48" fill="#77CABB" d="M104.5,123.002868 C104.5,121.620572 105.609662,120.5 107,120.5 L107,120.5 C108.380712,120.5 109.5,121.616885 109.5,123.002868 L109.5,156.5 C109.5,156.5 104.5,156.5 104.5,156.5 C104.5,156.5 104.5,123.002868 104.5,123.002868 Z" transform="translate(107.000000, 138.500000) rotate(270.000000) translate(-107.000000, -138.500000)"/><path id="Rectangle-48" fill="#77CABB" d="M245.5,123.002868 C245.5,121.620572 246.609662,120.5 248,120.5 L248,120.5 C249.380712,120.5 250.5,121.616885 250.5,123.002868 L250.5,156.5 C250.5,156.5 245.5,156.5 245.5,156.5 C245.5,156.5 245.5,123.002868 245.5,123.002868 Z" transform="translate(248.000000, 138.500000) rotate(90.000000) translate(-248.000000, -138.500000)"/><path id="Rectangle-48" fill="#77CABB" d="M245.5,137.002868 C245.5,135.620572 246.609662,134.5 248,134.5 L248,134.5 C249.380712,134.5 250.5,135.616885 250.5,137.002868 L250.5,170.5 C250.5,170.5 245.5,170.5 245.5,170.5 C245.5,170.5 245.5,137.002868 245.5,137.002868 Z" transform="translate(248.000000, 152.500000) rotate(90.000000) translate(-248.000000, -152.500000)"/><path id="Rectangle-48" fill="#77CABB" d="M245.5,152.002868 C245.5,150.620572 246.609662,149.5 248,149.5 L248,149.5 C249.380712,149.5 250.5,150.616885 250.5,152.002868 L250.5,185.5 C250.5,185.5 245.5,185.5 245.5,185.5 C245.5,185.5 245.5,152.002868 245.5,152.002868 Z" transform="translate(248.000000, 167.500000) rotate(90.000000) translate(-248.000000, -167.500000)"/><path id="Rectangle-48" fill="#77CABB" d="M245.5,167.002868 C245.5,165.620572 246.609662,164.5 248,164.5 L248,164.5 C249.380712,164.5 250.5,165.616885 250.5,167.002868 L250.5,200.5 C250.5,200.5 245.5,200.5 245.5,200.5 C245.5,200.5 245.5,167.002868 245.5,167.002868 Z" transform="translate(248.000000, 182.500000) rotate(90.000000) translate(-248.000000, -182.500000)"/><path id="Rectangle-48" fill="#77CABB" d="M104.5,137.002868 C104.5,135.620572 105.609662,134.5 107,134.5 L107,134.5 C108.380712,134.5 109.5,135.616885 109.5,137.002868 L109.5,170.5 C109.5,170.5 104.5,170.5 104.5,170.5 C104.5,170.5 104.5,137.002868 104.5,137.002868 Z" transform="translate(107.000000, 152.500000) rotate(270.000000) translate(-107.000000, -152.500000)"/><path id="Rectangle-48" fill="#77CABB" d="M104.5,152.002868 C104.5,150.620572 105.609662,149.5 107,149.5 L107,149.5 C108.380712,149.5 109.5,150.616885 109.5,152.002868 L109.5,185.5 C109.5,185.5 104.5,185.5 104.5,185.5 C104.5,185.5 104.5,152.002868 104.5,152.002868 Z" transform="translate(107.000000, 167.500000) rotate(270.000000) translate(-107.000000, -167.500000)"/><path id="Rectangle-48" fill="#77CABB" d="M104.5,167.002868 C104.5,165.620572 105.609662,164.5 107,164.5 L107,164.5 C108.380712,164.5 109.5,165.616885 109.5,167.002868 L109.5,200.5 C109.5,200.5 104.5,200.5 104.5,200.5 C104.5,200.5 104.5,167.002868 104.5,167.002868 Z" transform="translate(107.000000, 182.500000) rotate(270.000000) translate(-107.000000, -182.500000)"/><circle id="Oval-37" cx="120" cy="103" r="5" fill="#EF5F8B" stroke="#D8D8D8" stroke-width="2"/><rect id="Rectangle-69" width="21" height="4" x="112" y="222" fill="#D8D8D8" rx="3"/><rect id="Rectangle-66" width="14" height="14" x="130" y="217" fill="#324D5B" rx="3"/><rect id="Rectangle-68" width="4" height="20" x="112" y="206" fill="#D8D8D8" rx="3"/><rect id="Rectangle-66" width="14" height="14" x="107" y="195" fill="#324D5B" rx="3"/><circle id="Oval-38" cx="114" cy="202" r="3" fill="#61757F"/><rect id="Rectangle-71" width="19" height="12" x="233" y="200" fill="#EFC75E"/><rect id="Rectangle-71" width="19" height="12" x="233" y="214" fill="#EFC75E"/><rect id="Rectangle-73" width="4" height="15" x="218" y="206" fill="#D8D8D8" rx="3"/><circle id="Oval-39" cx="26.5" cy="138.5" r="7.5" stroke="#D8D8D8" stroke-width="4"/><circle id="Oval-39" cx="65.5" cy="247.5" r="7.5" stroke="#D8D8D8" stroke-width="4"/><circle id="Oval-39" cx="49.5" cy="42.5" r="7.5" stroke="#D8D8D8" stroke-width="4"/><circle id="Oval-39" cx="249.5" cy="24.5" r="7.5" stroke="#D8D8D8" stroke-width="4"/><circle id="Oval-39" cx="306.5" cy="58.5" r="7.5" stroke="#D8D8D8" stroke-width="4"/><circle id="Oval-39" cx="325.5" cy="152.5" r="7.5" stroke="#D8D8D8" stroke-width="4"/><circle id="Oval-39" cx="281.5" cy="97.5" r="7.5" stroke="#D8D8D8" stroke-width="4"/><circle id="Oval-39" cx="300.5" cy="207.5" r="7.5" stroke="#D8D8D8" stroke-width="4"/><circle id="Oval-39" cx="275.5" cy="280.5" r="7.5" stroke="#D8D8D8" stroke-width="4"/><circle id="Oval-39" cx="85.5" cy="323.5" r="7.5" stroke="#D8D8D8" stroke-width="4"/><circle id="Oval-39" cx="110.5" cy="280.5" r="7.5" stroke="#D8D8D8" stroke-width="4"/><circle id="Oval-39" cx="216.5" cy="299.5" r="7.5" stroke="#D8D8D8" stroke-width="4"/><circle id="Oval-39" cx="237.5" cy="259.5" r="7.5" stroke="#D8D8D8" stroke-width="4"/><circle id="Oval-39" cx="73.5" cy="64.5" r="7.5" stroke="#D8D8D8" stroke-width="4"/><circle id="Oval-39" cx="104.5" cy="45.5" r="7.5" stroke="#D8D8D8" stroke-width="4"/><circle id="Oval-39" cx="35.5" cy="182.5" r="7.5" stroke="#D8D8D8" stroke-width="4"/><rect id="Rectangle-88" width="22" height="14" x="221" y="99" fill="#D8D8D8" stroke="#EE7367" stroke-width="3" rx="3"/></g></g></svg>