<svg xmlns="http://www.w3.org/2000/svg" xmlns:xlink="http://www.w3.org/1999/xlink" class="not-found__svg" version="1.1" viewBox="0 0 1920 1080"><defs><linearGradient id="linearGradient-1" x1="82.093%" x2="51.806%" y1="75.079%" y2="100%"><stop offset="0%" stop-color="#FFF" stop-opacity="0"/><stop offset="48.245%" stop-color="#FFF"/><stop offset="100%" stop-color="#FFF"/></linearGradient><circle id="path-2" cx="252" cy="280" r="58"/><filter id="filter-3" width="200%" height="200%" x="-50%" y="-50%" filterUnits="objectBoundingBox"><feOffset dx="5" dy="-9" in="SourceAlpha" result="shadowOffsetInner1"/><feComposite in="shadowOffsetInner1" in2="SourceAlpha" k2="-1" k3="1" operator="arithmetic" result="shadowInnerInner1"/><feColorMatrix in="shadowInnerInner1" type="matrix" values="0 0 0 0 0.749495111 0 0 0 0 0.300766508 0 0 0 0 0.294900775 0 0 0 1 0"/></filter><circle id="path-4" cx="743.5" cy="490.5" r="22.5"/><filter id="filter-5" width="200%" height="200%" x="-50%" y="-50%" filterUnits="objectBoundingBox"><feGaussianBlur in="SourceAlpha" result="shadowBlurInner1" stdDeviation=".5"/><feOffset dx="3" dy="-3" in="shadowBlurInner1" result="shadowOffsetInner1"/><feComposite in="shadowOffsetInner1" in2="SourceAlpha" k2="-1" k3="1" operator="arithmetic" result="shadowInnerInner1"/><feColorMatrix in="shadowInnerInner1" type="matrix" values="0 0 0 0 0.752941176 0 0 0 0 0.305882353 0 0 0 0 0.298039216 0 0 0 1 0"/></filter><linearGradient id="linearGradient-6" x1="50%" x2="50%" y1="0%" y2="95.873%"><stop offset="0%" stop-color="#FFF"/><stop offset="100%" stop-color="#FFF" stop-opacity="0"/></linearGradient><circle id="path-7" cx="28.5" cy="26.5" r="22.5"/><filter id="filter-8" width="200%" height="200%" x="-50%" y="-50%" filterUnits="objectBoundingBox"><feGaussianBlur in="SourceAlpha" result="shadowBlurInner1" stdDeviation="1"/><feOffset dx="0" dy="-5" in="shadowBlurInner1" result="shadowOffsetInner1"/><feComposite in="shadowOffsetInner1" in2="SourceAlpha" k2="-1" k3="1" operator="arithmetic" result="shadowInnerInner1"/><feColorMatrix in="shadowInnerInner1" type="matrix" values="0 0 0 0 0.752941176 0 0 0 0 0.305882353 0 0 0 0 0.298039216 0 0 0 1 0"/></filter><circle id="path-9" cx="1108.5" cy="659.5" r="22.5"/><filter id="filter-10" width="200%" height="200%" x="-50%" y="-50%" filterUnits="objectBoundingBox"><feOffset dx="3" dy="-3.5" in="SourceAlpha" result="shadowOffsetInner1"/><feComposite in="shadowOffsetInner1" in2="SourceAlpha" k2="-1" k3="1" operator="arithmetic" result="shadowInnerInner1"/><feColorMatrix in="shadowInnerInner1" type="matrix" values="0 0 0 0 0.752941176 0 0 0 0 0.305882353 0 0 0 0 0.298039216 0 0 0 1 0"/></filter><linearGradient id="linearGradient-11" x1="50%" x2="50%" y1="11.442%" y2="100%"><stop offset="15.828%" stop-color="#FFF" stop-opacity="0"/><stop offset="100%" stop-color="#FFF"/></linearGradient><circle id="path-12" cx="978" cy="499" r="8"/><filter id="filter-13" width="200%" height="200%" x="-50%" y="-50%" filterUnits="objectBoundingBox"><feOffset dx="-1" dy="2.5" in="SourceAlpha" result="shadowOffsetOuter1"/><feColorMatrix in="shadowOffsetOuter1" type="matrix" values="0 0 0 0 0 0 0 0 0 0 0 0 0 0 0 0 0 0 0.5 0"/></filter><filter id="filter-14" width="200%" height="200%" x="-50%" y="-50%" filterUnits="objectBoundingBox"><feOffset dx="1" dy="-2" in="SourceAlpha" result="shadowOffsetInner1"/><feComposite in="shadowOffsetInner1" in2="SourceAlpha" k2="-1" k3="1" operator="arithmetic" result="shadowInnerInner1"/><feColorMatrix in="shadowInnerInner1" type="matrix" values="0 0 0 0 0.0202350295 0 0 0 0 0.133358698 0 0 0 0 0.391927083 0 0 0 1 0"/></filter><circle id="path-15" cx="949" cy="515" r="8"/><filter id="filter-16" width="200%" height="200%" x="-50%" y="-50%" filterUnits="objectBoundingBox"><feOffset dx="-1" dy="2.5" in="SourceAlpha" result="shadowOffsetOuter1"/><feColorMatrix in="shadowOffsetOuter1" type="matrix" values="0 0 0 0 0 0 0 0 0 0 0 0 0 0 0 0 0 0 0.5 0"/></filter><filter id="filter-17" width="200%" height="200%" x="-50%" y="-50%" filterUnits="objectBoundingBox"><feOffset dx="1" dy="-2" in="SourceAlpha" result="shadowOffsetInner1"/><feComposite in="shadowOffsetInner1" in2="SourceAlpha" k2="-1" k3="1" operator="arithmetic" result="shadowInnerInner1"/><feColorMatrix in="shadowInnerInner1" type="matrix" values="0 0 0 0 0.0202350295 0 0 0 0 0.133358698 0 0 0 0 0.391927083 0 0 0 1 0"/></filter><path id="path-18" d="M963.479297,527.196437 C963.479297,522.778159 966.944779,518.299862 971.217335,517.194484 L975.405189,516.111019 L980.305299,517.303922 C984.598714,518.349129 988.079216,522.787149 988.079216,527.196437 L988.079216,527.196437 C988.079216,531.614715 984.502176,535.196437 980.075328,535.196437 L971.483184,535.196437 C967.062759,535.196437 963.479297,531.605725 963.479297,527.196437 L963.479297,527.196437 Z"/><mask id="mask-19" width="24.6" height="19.085" x="0" y="0" fill="#fff" maskContentUnits="userSpaceOnUse" maskUnits="objectBoundingBox"><use xlink:href="#path-18"/></mask></defs><g id="Page-1" fill="none" fill-rule="evenodd" stroke="none" stroke-width="1"><g id="404-Page"><circle cx="960" cy="540" r="800" class="not-found__svg--circle-1"/><circle cx="960" cy="540" r="600" class="not-found__svg--circle-2"/><circle cx="960" cy="540" r="400" class="not-found__svg--circle-3"/><g id="Group" transform="translate(709.000000, 259.000000)"><ellipse id="Oval-1" cx="251" cy="280.085" stroke="#FFF" stroke-width="10" rx="251" ry="99.574"/><path id="Oval-1" stroke="url(#linearGradient-1)" stroke-width="10" d="M247.622858,374.190807 C298.072867,374.190807 349.081211,372.77834 393.559437,368.330655 C471.295783,360.557261 514.137269,358.701007 514.137269,358.701007 C514.137269,358.701007 468.542915,226.965131 388.0368,199.384403 C344.884833,184.600896 295.997177,175.04187 247.622858,175.04187 C108.999386,175.04187 -3.3771415,219.622878 -3.3771415,274.616338 C-3.3771415,329.609799 108.999386,374.190807 247.622858,374.190807 Z" transform="translate(255.380064, 274.616338) rotate(-60.000000) translate(-255.380064, -274.616338)"/><ellipse id="Oval-1" cx="251.501" cy="281.334" stroke="#FFF" stroke-width="10" rx="251" ry="99.574" transform="translate(251.501461, 281.334275) rotate(-120.000000) translate(-251.501461, -281.334275)"/><g id="Oval-4"><use fill-rule="evenodd" class="not-found__svg-oval" xlink:href="#path-2"/><use fill="#000" fill-opacity="1" filter="url(#filter-3)" xlink:href="#path-2"/></g></g><g id="Oval-2"><use fill-rule="evenodd" class="not-found__svg-oval" xlink:href="#path-4"/><use fill="#000" fill-opacity="1" filter="url(#filter-5)" xlink:href="#path-4"/></g><g id="Group-2" transform="translate(1225.186840, 228.658126) rotate(24.000000) translate(-1225.186840, -228.658126) translate(1197.186840, 168.158126)"><path id="Oval-2" fill="url(#linearGradient-6)" d="M26.2321004,119.817008 C26.4176227,120.33776 26.733539,120.341266 26.9348198,119.830543 C26.9348198,119.830543 56,46.5685425 56,30 C56,13.4314575 43.463973,-2.84217094e-14 28,-2.84217094e-14 C12.536027,-2.84217094e-14 -5.22959454e-12,13.4314575 -5.22959454e-12,30 C-5.22959454e-12,46.5685425 26.2321004,119.817008 26.2321004,119.817008 Z"/><g id="Oval-2"><use fill-rule="evenodd" class="not-found__svg-oval" xlink:href="#path-7"/><use fill="#000" fill-opacity="1" filter="url(#filter-8)" xlink:href="#path-7"/></g></g><g id="Oval-2"><use fill-rule="evenodd" class="not-found__svg-oval" xlink:href="#path-9"/><use fill="#000" fill-opacity="1" filter="url(#filter-10)" xlink:href="#path-9"/></g><polygon id="Triangle" fill="url(#linearGradient-11)" points="1187.453 306.92 1117.36 466.803 1107.778 463.824"/><text id="4" fill="#FFF" font-family="VarelaRound-Regular, Varela Round" font-size="525" font-weight="normal" letter-spacing="8.75"><tspan x="372" y="722">4</tspan></text><text id="4" fill="#FFF" font-family="VarelaRound-Regular, Varela Round" font-size="525" font-weight="normal" letter-spacing="8.75"><tspan x="1222" y="722">4</tspan></text><g id="Oval-3"><use fill="#000" fill-opacity="1" filter="url(#filter-13)" xlink:href="#path-12"/><use fill="#0B3F8E" fill-rule="evenodd" xlink:href="#path-12"/><use fill="#000" fill-opacity="1" filter="url(#filter-14)" xlink:href="#path-12"/></g><g id="Oval-3"><use fill="#000" fill-opacity="1" filter="url(#filter-16)" xlink:href="#path-15"/><use fill="#0B3F8E" fill-rule="evenodd" xlink:href="#path-15"/><use fill="#000" fill-opacity="1" filter="url(#filter-17)" xlink:href="#path-15"/></g><use id="Rectangle-2" fill="#FC89B7" stroke="#98403D" stroke-width="6" mask="url(#mask-19)" transform="translate(975.779256, 525.653728) rotate(-32.000000) translate(-975.779256, -525.653728)" xlink:href="#path-18"/><circle id="Oval-5" cx="980" cy="496" r="2" fill="#FFF"/><circle id="Oval-5" cx="951" cy="512" r="2" fill="#FFF"/><path id="Line" stroke="#973F3D" stroke-linecap="square" stroke-width="3" d="M934.107775,513.097041 L944.892225,500.902959"/><path id="Line" stroke="#973F3D" stroke-linecap="square" stroke-width="3" d="M965.55282,489.526741 L981.558509,486.557243"/></g></g></svg>